<svg height="512pt" viewBox="-53 0 511 512" width="512pt" xmlns="http://www.w3.org/2000/svg"><path d="m352.5 0h-298.667969c-29.417969 0-53.332031 23.9375-53.332031 53.332031v448c0 3.777344 2.003906 7.277344 5.246094 9.195313 3.246094 1.898437 7.277344 1.964844 10.605468.128906l186.816407-103.785156 186.816406 103.785156c1.621094.894531 3.390625 1.34375 5.183594 1.34375 1.875 0 3.753906-.492188 5.417969-1.472656 3.242187-1.917969 5.246093-5.417969 5.246093-9.195313v-448c0-29.394531-23.914062-53.332031-53.332031-53.332031zm0 0" fill="#00bcd4"/><path d="m353.695312 170.730469-90.539062-10.046875-50.644531-91.179688c-3.796875-6.761718-14.871094-6.761718-18.667969 0l-50.667969 91.179688-90.539062 10.046875c-4.050781.449219-7.527344 3.199219-8.871094 7.082031s-.363281 8.171875 2.515625 11.074219l70.632812 70.632812-20.199218 101.054688c-.8125 4.078125.808594 8.257812 4.160156 10.710937 3.367188 2.476563 7.828125 2.730469 11.476562.703125l90.816407-50.453125 90.816406 50.453125c1.621094.898438 3.410156 1.34375 5.183594 1.34375 2.21875 0 4.414062-.679687 6.292969-2.046875 3.347656-2.453125 4.96875-6.632812 4.160156-10.710937l-20.203125-101.054688 70.632812-70.632812c2.902344-2.902344 3.882813-7.210938 2.519531-11.074219-1.367187-3.859375-4.824218-6.632812-8.875-7.082031zm0 0" fill="#fafafa"/><path d="m299.167969 373.332031c-1.773438 0-3.5625-.445312-5.183594-1.320312l-90.816406-50.476563-90.816407 50.453125c-3.628906 2.027344-8.109374 1.75-11.476562-.703125-3.351562-2.453125-4.972656-6.65625-4.160156-10.710937l20.199218-101.074219-70.632812-70.613281c-2.878906-2.902344-3.882812-7.210938-2.515625-11.074219 1.34375-3.882812 4.820313-6.632812 8.894531-7.082031l90.539063-10.070313 50.667969-91.175781c3.753906-6.742187 14.890624-6.742187 18.644531 0l50.664062 91.175781 90.539063 10.070313c4.074218.449219 7.53125 3.199219 8.898437 7.082031 1.363281 3.863281.382813 8.171875-2.519531 11.074219l-70.632812 70.632812 20.203124 101.078125c.808594 4.054688-.8125 8.253906-4.160156 10.710938-1.898437 1.34375-4.117187 2.023437-6.335937 2.023437zm-96-74.664062c1.769531 0 3.5625.445312 5.183593 1.320312l75.839844 42.15625-16.8125-84.054687c-.703125-3.476563.40625-7.101563 2.921875-9.621094l58.96875-58.984375-73.941406-8.214844c-3.4375-.382812-6.464844-2.390625-8.152344-5.417969l-44.007812-79.234374-44.011719 79.234374c-1.6875 3.027344-4.714844 5.035157-8.148438 5.417969l-73.941406 8.214844 58.964844 58.984375c2.515625 2.519531 3.605469 6.144531 2.921875 9.621094l-16.808594 84.054687 75.839844-42.15625c1.621094-.875 3.410156-1.320312 5.183594-1.320312zm0 0"/><path d="m395.167969 512c-1.773438 0-3.5625-.449219-5.183594-1.324219l-186.816406-103.804687-186.816407 103.785156c-3.285156 1.8125-7.339843 1.75-10.582031-.148438-3.265625-1.898437-5.269531-5.398437-5.269531-9.175781v-448c0-29.417969 23.9375-53.332031 53.332031-53.332031h298.667969c29.398438 0 53.332031 23.914062 53.332031 53.332031v448c0 3.777344-2.003906 7.277344-5.269531 9.195313-1.664062.980468-3.519531 1.472656-5.394531 1.472656zm-192-128c1.769531 0 3.5625.449219 5.183593 1.324219l176.148438 97.875v-429.867188c0-17.640625-14.355469-32-32-32h-298.667969c-17.640625 0-32 14.359375-32 32v429.867188l176.152344-97.875c1.621094-.875 3.410156-1.324219 5.183594-1.324219zm0 0"/></svg>